<svg xmlns="http://www.w3.org/2000/svg" version="1.1" xmlns:xlink="http://www.w3.org/1999/xlink" xmlns:svgjs="http://svgjs.dev/svgjs" width="1000" height="623" viewBox="0 0 1000 623"><g transform="matrix(1,0,0,1,-0.6060606060606233,0.2522267206477409)"><svg viewBox="0 0 396 247" data-background-color="#ffffff" preserveAspectRatio="xMidYMid meet" height="623" width="1000" xmlns="http://www.w3.org/2000/svg" xmlns:xlink="http://www.w3.org/1999/xlink"><defs></defs><g id="tight-bounds" transform="matrix(1,0,0,1,0.2400000000000091,-0.09999999999999432)"><svg viewBox="0 0 395.52 247.2" height="247.2" width="395.52"><g><svg></svg></g><g><svg viewBox="0 0 395.52 247.2" height="247.2" width="395.52"><g><path d="M190.931 209.983c15.478 0 26.746-2.618 33.802-7.853 7.056-5.235 10.585-12.633 10.585-22.193 0-0.194-0.001-0.388-0.004-0.58l44.731 0c0.001 0.193 0.001 0.386 0.001 0.58 0 21.397-7.557 37.945-22.671 49.645-15.16 11.745-37.308 17.618-66.444 17.618-9.788 0-18.711-0.615-26.768-1.844-8.103-1.275-15.274-2.823-21.511-4.643-6.282-1.821-11.7-3.71-16.252-5.668-4.552-1.912-8.194-3.665-10.926-5.258l12.633-35.168c6.146 3.414 14.454 6.829 24.925 10.243 10.471 3.414 23.104 5.122 37.899 5.121zM142.447 18.301c14.796-12.201 34.94-18.301 60.435-18.301 14.796 0 27.952 1.639 39.47 4.917 11.472 3.323 20.509 6.92 27.11 10.789l-13.316 34.827c-7.739-4.325-16.207-7.625-25.403-9.902-9.242-2.276-18.756-3.414-28.544-3.414-11.609 0-20.646 2.39-27.11 7.17-6.51 4.78-9.765 11.495-9.765 20.145 0 1.139 0.052 2.243 0.155 3.311l-45.222 0c0.179-21.022 7.576-37.536 22.19-49.542z" fill="#f26925" data-fill-palette-color="tertiary"></path></g><g transform="matrix(1,0,0,1,0,80.4392408759124)"><svg viewBox="0 0 395.52 86.32151824817518" height="86.32151824817518" width="395.52"><g><svg viewBox="0 0 395.52 86.32151824817518" height="86.32151824817518" width="395.52"><g><svg viewBox="0 0 395.52 86.32151824817518" height="86.32151824817518" width="395.52"><g><svg viewBox="0 0 395.52 86.32151824817518" height="86.32151824817518" width="395.52"><g><svg viewBox="0 0 395.52 86.32151824817518" height="86.32151824817518" width="395.52"><g><svg viewBox="0 0 395.52 86.32151824817518" height="86.32151824817518" width="395.52"><g transform="matrix(1,0,0,1,0,0)"><svg width="395.52" viewBox="1.5 -35.45000076293945 205.49000549316406 44.849998474121094" height="86.32151824817518" data-palette-color="#f26925"><path d="M12.55-4.7L12.55-4.7Q15.95-4.7 17.5-5.85 19.05-7 19.05-9.1L19.05-9.1Q19.05-10.35 18.53-11.25 18-12.15 17.03-12.88 16.05-13.6 14.65-14.23 13.25-14.85 11.45-15.45L11.45-15.45Q9.65-16.1 7.98-16.88 6.3-17.65 5.03-18.8 3.75-19.95 2.98-21.55 2.2-23.15 2.2-25.4L2.2-25.4Q2.2-30.1 5.45-32.77 8.7-35.45 14.3-35.45L14.3-35.45Q17.55-35.45 20.08-34.73 22.6-34 24.05-33.15L24.05-33.15 22.1-28.05Q20.4-29 18.38-29.5 16.35-30 14.2-30L14.2-30Q11.65-30 10.23-28.95 8.8-27.9 8.8-26L8.8-26Q8.8-24.85 9.28-24.03 9.75-23.2 10.63-22.55 11.5-21.9 12.68-21.35 13.85-20.8 15.25-20.3L15.25-20.3Q17.7-19.4 19.63-18.48 21.55-17.55 22.88-16.28 24.2-15 24.9-13.28 25.6-11.55 25.6-9.1L25.6-9.1Q25.6-4.4 22.28-1.83 18.95 0.75 12.55 0.75L12.55 0.75Q10.4 0.75 8.63 0.48 6.85 0.2 5.48-0.2 4.1-0.6 3.1-1.03 2.1-1.45 1.5-1.8L1.5-1.8 3.35-6.95Q4.7-6.2 7-5.45 9.3-4.7 12.55-4.7ZM46.45-16.45L46.45-16.45Q45.3-12.05 43.97-7.88 42.65-3.7 41.35 0L41.35 0 36.4 0Q35.4-2.3 34.3-5.25 33.2-8.2 32.1-11.55 31-14.9 29.9-18.6 28.8-22.3 27.75-26.15L27.75-26.15 34.15-26.15Q34.6-24.05 35.2-21.63 35.8-19.2 36.45-16.68 37.1-14.15 37.8-11.75 38.5-9.35 39.2-7.35L39.2-7.35Q39.95-9.65 40.67-12.1 41.4-14.55 42.05-17 42.7-19.45 43.27-21.78 43.85-24.1 44.3-26.15L44.3-26.15 48.95-26.15Q49.4-24.1 49.95-21.78 50.5-19.45 51.12-17 51.75-14.55 52.47-12.1 53.2-9.65 53.95-7.35L53.95-7.35Q54.6-9.35 55.3-11.75 56-14.15 56.67-16.68 57.35-19.2 57.95-21.63 58.55-24.05 59-26.15L59-26.15 65.25-26.15Q64.2-22.3 63.1-18.6 62-14.9 60.9-11.55 59.8-8.2 58.7-5.25 57.6-2.3 56.55 0L56.55 0 51.65 0Q50.35-3.7 48.97-7.88 47.6-12.05 46.45-16.45ZM79.05-4.25L79.05-4.25Q81.84-4.25 83.3-4.55L83.3-4.55 83.3-11.25Q82.8-11.4 81.84-11.55 80.9-11.7 79.75-11.7L79.75-11.7Q78.75-11.7 77.72-11.55 76.7-11.4 75.87-11 75.05-10.6 74.55-9.88 74.05-9.15 74.05-8.05L74.05-8.05Q74.05-5.9 75.4-5.08 76.75-4.25 79.05-4.25ZM78.55-26.8L78.55-26.8Q81.55-26.8 83.59-26.05 85.65-25.3 86.87-23.95 88.09-22.6 88.62-20.68 89.15-18.75 89.15-16.45L89.15-16.45 89.15-0.6Q87.75-0.3 84.92 0.13 82.09 0.55 78.55 0.55L78.55 0.55Q76.2 0.55 74.25 0.1 72.3-0.35 70.92-1.35 69.55-2.35 68.77-3.95 68-5.55 68-7.9L68-7.9Q68-10.15 68.87-11.7 69.75-13.25 71.25-14.23 72.75-15.2 74.72-15.63 76.7-16.05 78.84-16.05L78.84-16.05Q79.84-16.05 80.95-15.93 82.05-15.8 83.3-15.5L83.3-15.5 83.3-16.5Q83.3-17.55 83.05-18.5 82.8-19.45 82.17-20.18 81.55-20.9 80.52-21.3 79.5-21.7 77.95-21.7L77.95-21.7Q75.84-21.7 74.09-21.4 72.34-21.1 71.25-20.7L71.25-20.7 70.5-25.6Q71.65-26 73.84-26.4 76.05-26.8 78.55-26.8ZM101.29-13.75L101.29-13.75Q101.29-9.9 102.97-8.13 104.64-6.35 107.29-6.35L107.29-6.35Q108.74-6.35 110.02-6.75 111.29-7.15 112.09-7.7L112.09-7.7 112.09-21.25Q111.44-21.4 110.49-21.53 109.54-21.65 108.09-21.65L108.09-21.65Q104.79-21.65 103.04-19.48 101.29-17.3 101.29-13.75ZM118.14-25.3L118.14-2.65Q118.14 3.6 114.97 6.5 111.79 9.4 105.24 9.4L105.24 9.4Q102.84 9.4 100.57 9 98.29 8.6 96.44 7.95L96.44 7.95 97.54 2.8Q99.09 3.45 101.07 3.85 103.04 4.25 105.34 4.25L105.34 4.25Q108.99 4.25 110.54 2.75 112.09 1.25 112.09-1.7L112.09-1.7 112.09-2.7Q111.19-2.25 109.72-1.8 108.24-1.35 106.34-1.35L106.34-1.35Q103.84-1.35 101.77-2.15 99.69-2.95 98.22-4.5 96.74-6.05 95.92-8.38 95.09-10.7 95.09-13.75L95.09-13.75Q95.09-16.6 95.97-19 96.84-21.4 98.52-23.1 100.19-24.8 102.59-25.75 104.99-26.7 108.04-26.7L108.04-26.7Q110.99-26.7 113.64-26.25 116.29-25.8 118.14-25.3L118.14-25.3ZM136.59 0.4L136.59 0.4Q133.84 0.4 131.04 0.23 128.24 0.05 126.14-0.5L126.14-0.5 126.14-34.15Q127.24-34.35 128.49-34.52 129.74-34.7 131.04-34.8 132.34-34.9 133.62-34.95 134.89-35 136.04-35L136.04-35Q139.19-35 141.89-34.52 144.59-34.05 146.56-32.95 148.54-31.85 149.64-30.05 150.74-28.25 150.74-25.6L150.74-25.6Q150.74-23.15 149.56-21.4 148.39-19.65 146.29-18.6L146.29-18.6Q149.44-17.55 150.94-15.5 152.44-13.45 152.44-10.3L152.44-10.3Q152.44-4.95 148.54-2.27 144.64 0.4 136.59 0.4ZM137.89-15.6L132.34-15.6 132.34-5.05Q133.39-4.95 134.59-4.9 135.79-4.85 136.79-4.85L136.79-4.85Q138.74-4.85 140.42-5.1 142.09-5.35 143.31-5.98 144.54-6.6 145.27-7.65 145.99-8.7 145.99-10.35L145.99-10.35Q145.99-13.3 143.84-14.45 141.69-15.6 137.89-15.6L137.89-15.6ZM132.34-29.65L132.34-20.55 136.79-20.55Q140.39-20.55 142.44-21.58 144.49-22.6 144.49-25.25L144.49-25.25Q144.49-27.75 142.37-28.8 140.24-29.85 136.84-29.85L136.84-29.85Q135.39-29.85 134.27-29.8 133.14-29.75 132.34-29.65L132.34-29.65ZM167.89-4.25L167.89-4.25Q170.69-4.25 172.14-4.55L172.14-4.55 172.14-11.25Q171.64-11.4 170.69-11.55 169.74-11.7 168.59-11.7L168.59-11.7Q167.59-11.7 166.56-11.55 165.54-11.4 164.71-11 163.89-10.6 163.39-9.88 162.89-9.15 162.89-8.05L162.89-8.05Q162.89-5.9 164.24-5.08 165.59-4.25 167.89-4.25ZM167.39-26.8L167.39-26.8Q170.39-26.8 172.44-26.05 174.49-25.3 175.71-23.95 176.94-22.6 177.46-20.68 177.99-18.75 177.99-16.45L177.99-16.45 177.99-0.6Q176.59-0.3 173.76 0.13 170.94 0.55 167.39 0.55L167.39 0.55Q165.04 0.55 163.09 0.1 161.14-0.35 159.76-1.35 158.39-2.35 157.61-3.95 156.84-5.55 156.84-7.9L156.84-7.9Q156.84-10.15 157.71-11.7 158.59-13.25 160.09-14.23 161.59-15.2 163.56-15.63 165.54-16.05 167.69-16.05L167.69-16.05Q168.69-16.05 169.79-15.93 170.89-15.8 172.14-15.5L172.14-15.5 172.14-16.5Q172.14-17.55 171.89-18.5 171.64-19.45 171.01-20.18 170.39-20.9 169.36-21.3 168.34-21.7 166.79-21.7L166.79-21.7Q164.69-21.7 162.94-21.4 161.19-21.1 160.09-20.7L160.09-20.7 159.34-25.6Q160.49-26 162.69-26.4 164.89-26.8 167.39-26.8ZM190.14-13.75L190.14-13.75Q190.14-9.9 191.81-8.13 193.49-6.35 196.14-6.35L196.14-6.35Q197.59-6.35 198.86-6.75 200.14-7.15 200.94-7.7L200.94-7.7 200.94-21.25Q200.29-21.4 199.34-21.53 198.39-21.65 196.94-21.65L196.94-21.65Q193.64-21.65 191.89-19.48 190.14-17.3 190.14-13.75ZM206.99-25.3L206.99-2.65Q206.99 3.6 203.81 6.5 200.64 9.4 194.09 9.4L194.09 9.4Q191.69 9.4 189.41 9 187.14 8.6 185.29 7.95L185.29 7.95 186.39 2.8Q187.94 3.45 189.91 3.85 191.89 4.25 194.19 4.25L194.19 4.25Q197.84 4.25 199.39 2.75 200.94 1.25 200.94-1.7L200.94-1.7 200.94-2.7Q200.04-2.25 198.56-1.8 197.09-1.35 195.19-1.35L195.19-1.35Q192.69-1.35 190.61-2.15 188.54-2.95 187.06-4.5 185.59-6.05 184.76-8.38 183.94-10.7 183.94-13.75L183.94-13.75Q183.94-16.6 184.81-19 185.69-21.4 187.36-23.1 189.04-24.8 191.44-25.75 193.84-26.7 196.89-26.7L196.89-26.7Q199.84-26.7 202.49-26.25 205.14-25.8 206.99-25.3L206.99-25.3Z" opacity="1" transform="matrix(1,0,0,1,0,0)" fill="#f26925" class="undefined-text-0" data-fill-palette-color="primary" id="text-0"></path></svg></g></svg></g></svg></g></svg></g></svg></g></svg></g></svg></g></svg></g></svg><rect width="395.52" height="247.2" fill="none" stroke="none" visibility="hidden"></rect></g></svg></g></svg>